{"buffers":[{"uri":"scene.bin","byteLength":243968},{"byteLength":846992,"extensions":{"MESHOPT_compression":{"fallback":true}}}],"asset":{"version":"2.0","generator":"gltfpack 0.12"},"extensionsUsed":["MESHOPT_quantized_geometry","MESHOPT_compression","KHR_texture_transform"],"extensionsRequired":["MESHOPT_compression"],"bufferViews":[{"buffer":1,"byteOffset":0,"byteLength":41904,"byteStride":4,"target":34962,"extensions":{"MESHOPT_compression":{"buffer":0,"byteOffset":0,"byteLength":1913,"byteStride":4,"mode":0,"count":10476}}},{"buffer":1,"byteOffset":41904,"byteLength":53716,"byteStride":4,"target":34962,"extensions":{"MESHOPT_compression":{"buffer":0,"byteOffset":1916,"byteLength":30266,"byteStride":4,"mode":0,"count":13429}}},{"buffer":1,"byteOffset":95620,"byteLength":120548,"byteStride":4,"target":34962,"extensions":{"MESHOPT_compression":{"buffer":0,"byteOffset":32184,"byteLength":38445,"byteStride":4,"mode":0,"count":30137}}},{"buffer":1,"byteOffset":216168,"byteLength":120548,"byteStride":4,"target":34962,"extensions":{"MESHOPT_compression":{"buffer":0,"byteOffset":70632,"byteLength":35981,"byteStride":4,"mode":0,"count":30137}}},{"buffer":1,"byteOffset":336716,"byteLength":241096,"byteStride":8,"target":34962,"extensions":{"MESHOPT_compression":{"buffer":0,"byteOffset":106616,"byteLength":93245,"byteStride":8,"mode":0,"count":30137}}},{"buffer":1,"byteOffset":577812,"byteLength":53716,"byteStride":4,"target":34962,"extensions":{"MESHOPT_compression":{"buffer":0,"byteOffset":199864,"byteLength":2506,"byteStride":4,"mode":0,"count":13429}}},{"buffer":1,"byteOffset":631528,"byteLength":53716,"byteStride":4,"target":34962,"extensions":{"MESHOPT_compression":{"buffer":0,"byteOffset":202372,"byteLength":5829,"byteStride":4,"mode":0,"count":13429}}},{"buffer":1,"byteOffset":685244,"byteLength":95808,"target":34963,"extensions":{"MESHOPT_compression":{"buffer":0,"byteOffset":208204,"byteLength":19272,"byteStride":2,"mode":1,"count":47904}}},{"buffer":1,"byteOffset":781052,"byteLength":32688,"target":34963,"extensions":{"MESHOPT_compression":{"buffer":0,"byteOffset":227476,"byteLength":6425,"byteStride":2,"mode":1,"count":16344}}},{"buffer":1,"byteOffset":813740,"byteLength":1152,"target":34963,"extensions":{"MESHOPT_compression":{"buffer":0,"byteOffset":233904,"byteLength":224,"byteStride":2,"mode":1,"count":576}}},{"buffer":1,"byteOffset":814892,"byteLength":1152,"target":34963,"extensions":{"MESHOPT_compression":{"buffer":0,"byteOffset":234128,"byteLength":226,"byteStride":2,"mode":1,"count":576}}},{"buffer":1,"byteOffset":816044,"byteLength":20532,"target":34963,"extensions":{"MESHOPT_compression":{"buffer":0,"byteOffset":234356,"byteLength":4003,"byteStride":2,"mode":1,"count":10266}}},{"buffer":1,"byteOffset":836576,"byteLength":768,"extensions":{"MESHOPT_compression":{"buffer":0,"byteOffset":238360,"byteLength":427,"byteStride":64,"mode":0,"count":12}}},{"buffer":1,"byteOffset":837344,"byteLength":804,"extensions":{"MESHOPT_compression":{"buffer":0,"byteOffset":238788,"byteLength":573,"byteStride":4,"mode":0,"count":201}}},{"buffer":0,"byteOffset":239364,"byteLength":402},{"buffer":1,"byteOffset":838148,"byteLength":6432,"extensions":{"MESHOPT_compression":{"buffer":0,"byteOffset":239768,"byteLength":3006,"byteStride":8,"mode":0,"count":804}}},{"buffer":1,"byteOffset":844580,"byteLength":2412,"extensions":{"MESHOPT_compression":{"buffer":0,"byteOffset":242776,"byteLength":1192,"byteStride":12,"mode":0,"count":201}}}],"accessors":[{"bufferView":0,"byteOffset":0,"componentType":5121,"count":8354,"type":"VEC4","normalized":true},{"bufferView":1,"byteOffset":0,"componentType":5123,"count":8354,"type":"VEC2"},{"bufferView":2,"byteOffset":0,"componentType":5120,"count":8354,"type":"VEC3","normalized":true},{"bufferView":3,"byteOffset":0,"componentType":5120,"count":8354,"type":"VEC4","normalized":true},{"bufferView":4,"byteOffset":0,"componentType":5123,"count":8354,"type":"VEC3","min":[521,711,501],"max":[13646,15886,12398]},{"bufferView":5,"byteOffset":0,"componentType":5121,"count":8354,"type":"VEC4"},{"bufferView":6,"byteOffset":0,"componentType":5121,"count":8354,"type":"VEC4","normalized":true},{"bufferView":2,"byteOffset":33416,"componentType":5120,"count":8354,"type":"VEC3","normalized":true},{"bufferView":4,"byteOffset":66832,"componentType":5122,"count":8354,"type":"VEC3","min":[-332,-283,-165],"max":[263,497,237]},{"bufferView":3,"byteOffset":33416,"componentType":5120,"count":8354,"type":"VEC3","normalized":true},{"bufferView":2,"byteOffset":66832,"componentType":5120,"count":8354,"type":"VEC3","normalized":true},{"bufferView":4,"byteOffset":133664,"componentType":5122,"count":8354,"type":"VEC3","min":[-205,-255,-501],"max":[205,406,67]},{"bufferView":3,"byteOffset":66832,"componentType":5120,"count":8354,"type":"VEC3","normalized":true},{"bufferView":7,"byteOffset":0,"componentType":5123,"count":47904,"type":"SCALAR"},{"bufferView":1,"byteOffset":33416,"componentType":5123,"count":2953,"type":"VEC2"},{"bufferView":2,"byteOffset":100248,"componentType":5120,"count":2953,"type":"VEC3","normalized":true},{"bufferView":3,"byteOffset":100248,"componentType":5120,"count":2953,"type":"VEC4","normalized":true},{"bufferView":4,"byteOffset":200496,"componentType":5123,"count":2953,"type":"VEC3","min":[332,533,5136],"max":[13844,8694,12612]},{"bufferView":5,"byteOffset":33416,"componentType":5121,"count":2953,"type":"VEC4"},{"bufferView":6,"byteOffset":33416,"componentType":5121,"count":2953,"type":"VEC4","normalized":true},{"bufferView":8,"byteOffset":0,"componentType":5123,"count":16344,"type":"SCALAR"},{"bufferView":0,"byteOffset":33416,"componentType":5121,"count":114,"type":"VEC4","normalized":true},{"bufferView":1,"byteOffset":45228,"componentType":5123,"count":114,"type":"VEC2"},{"bufferView":2,"byteOffset":112060,"componentType":5120,"count":114,"type":"VEC3","normalized":true},{"bufferView":3,"byteOffset":112060,"componentType":5120,"count":114,"type":"VEC4","normalized":true},{"bufferView":4,"byteOffset":224120,"componentType":5123,"count":114,"type":"VEC3","min":[5254,11728,2039],"max":[6364,12838,3149]},{"bufferView":5,"byteOffset":45228,"componentType":5121,"count":114,"type":"VEC4"},{"bufferView":6,"byteOffset":45228,"componentType":5121,"count":114,"type":"VEC4","normalized":true},{"bufferView":9,"byteOffset":0,"componentType":5123,"count":576,"type":"SCALAR"},{"bufferView":0,"byteOffset":33872,"componentType":5121,"count":114,"type":"VEC4","normalized":true},{"bufferView":1,"byteOffset":45684,"componentType":5123,"count":114,"type":"VEC2"},{"bufferView":2,"byteOffset":112516,"componentType":5120,"count":114,"type":"VEC3","normalized":true},{"bufferView":3,"byteOffset":112516,"componentType":5120,"count":114,"type":"VEC4","normalized":true},{"bufferView":4,"byteOffset":225032,"componentType":5123,"count":114,"type":"VEC3","min":[7804,11728,2039],"max":[8914,12838,3149]},{"bufferView":5,"byteOffset":45684,"componentType":5121,"count":114,"type":"VEC4"},{"bufferView":6,"byteOffset":45684,"componentType":5121,"count":114,"type":"VEC4","normalized":true},{"bufferView":10,"byteOffset":0,"componentType":5123,"count":576,"type":"SCALAR"},{"bufferView":0,"byteOffset":34328,"componentType":5121,"count":1894,"type":"VEC4","normalized":true},{"bufferView":1,"byteOffset":46140,"componentType":5123,"count":1894,"type":"VEC2"},{"bufferView":2,"byteOffset":112972,"componentType":5120,"count":1894,"type":"VEC3","normalized":true},{"bufferView":3,"byteOffset":112972,"componentType":5120,"count":1894,"type":"VEC4","normalized":true},{"bufferView":4,"byteOffset":225944,"componentType":5123,"count":1894,"type":"VEC3","min":[5369,497,1648],"max":[8799,10766,6983]},{"bufferView":5,"byteOffset":46140,"componentType":5121,"count":1894,"type":"VEC4"},{"bufferView":6,"byteOffset":46140,"componentType":5121,"count":1894,"type":"VEC4","normalized":true},{"bufferView":11,"byteOffset":0,"componentType":5123,"count":10266,"type":"SCALAR"},{"bufferView":12,"byteOffset":0,"componentType":5126,"count":6,"type":"MAT4"},{"bufferView":12,"byteOffset":384,"componentType":5126,"count":4,"type":"MAT4"},{"bufferView":12,"byteOffset":640,"componentType":5126,"count":1,"type":"MAT4"},{"bufferView":12,"byteOffset":704,"componentType":5126,"count":1,"type":"MAT4"},{"bufferView":13,"byteOffset":0,"componentType":5126,"count":201,"type":"SCALAR","min":[0],"max":[6.66666651]},{"bufferView":14,"byteOffset":0,"componentType":5121,"count":402,"type":"SCALAR","normalized":true},{"bufferView":15,"byteOffset":0,"componentType":5122,"count":201,"type":"VEC4","normalized":true},{"bufferView":15,"byteOffset":1608,"componentType":5122,"count":201,"type":"VEC4","normalized":true},{"bufferView":15,"byteOffset":3216,"componentType":5122,"count":201,"type":"VEC4","normalized":true},{"bufferView":15,"byteOffset":4824,"componentType":5122,"count":201,"type":"VEC4","normalized":true},{"bufferView":16,"byteOffset":0,"componentType":5126,"count":201,"type":"VEC3"}],"images":[{"uri":"Alien_baseColor.basis"},{"uri":"Alien_occlusionRoughnessMetallic.basis"},{"uri":"Alien_normal.basis"}],"textures":[{"source":0},{"source":1},{"source":2}],"materials":[{"pbrMetallicRoughness":{"baseColorTexture":{"index":0,"texCoord":0,"extensions":{"KHR_texture_transform":{"offset":[0.00784546137,0.00778400898],"scale":[0.000239609406,0.000239643472]}}},"metallicRoughnessTexture":{"index":1,"texCoord":0,"extensions":{"KHR_texture_transform":{"offset":[0.00784546137,0.00778400898],"scale":[0.000239609406,0.000239643472]}}}},"normalTexture":{"index":2,"texCoord":0,"extensions":{"KHR_texture_transform":{"offset":[0.00784546137,0.00778400898],"scale":[0.000239609406,0.000239643472]}}},"occlusionTexture":{"index":1,"texCoord":0,"extensions":{"KHR_texture_transform":{"offset":[0.00784546137,0.00778400898],"scale":[0.000239609406,0.000239643472]}}}}],"meshes":[{"primitives":[{"attributes":{"COLOR_0":0,"TEXCOORD_0":1,"NORMAL":2,"TANGENT":3,"POSITION":4,"JOINTS_0":5,"WEIGHTS_0":6},"mode":4,"targets":[{"NORMAL":7,"POSITION":8,"TANGENT":9},{"NORMAL":10,"POSITION":11,"TANGENT":12}],"indices":13,"material":0}],"weights":[0,0]},{"primitives":[{"attributes":{"TEXCOORD_0":14,"NORMAL":15,"TANGENT":16,"POSITION":17,"JOINTS_0":18,"WEIGHTS_0":19},"mode":4,"indices":20,"material":0}]},{"primitives":[{"attributes":{"COLOR_0":21,"TEXCOORD_0":22,"NORMAL":23,"TANGENT":24,"POSITION":25,"JOINTS_0":26,"WEIGHTS_0":27},"mode":4,"indices":28,"material":0}]},{"primitives":[{"attributes":{"COLOR_0":29,"TEXCOORD_0":30,"NORMAL":31,"TANGENT":32,"POSITION":33,"JOINTS_0":34,"WEIGHTS_0":35},"mode":4,"indices":36,"material":0}]},{"primitives":[{"attributes":{"COLOR_0":37,"TEXCOORD_0":38,"NORMAL":39,"TANGENT":40,"POSITION":41,"JOINTS_0":42,"WEIGHTS_0":43},"mode":4,"indices":44,"material":0}]}],"skins":[{"joints":[17,16,15,14,11,12],"inverseBindMatrices":45,"skeleton":17},{"joints":[17,16,15,14],"inverseBindMatrices":46,"skeleton":17},{"joints":[11],"inverseBindMatrices":47,"skeleton":11},{"joints":[12],"inverseBindMatrices":48,"skeleton":12}],"animations":[{"name":"TwoTargetBlend","samplers":[{"input":49,"output":50},{"input":49,"output":51},{"input":49,"output":52},{"input":49,"output":53},{"input":49,"output":54},{"input":49,"output":55}],"channels":[{"sampler":0,"target":{"node":0,"path":"weights"}},{"sampler":1,"target":{"node":16,"path":"rotation"}},{"sampler":2,"target":{"node":15,"path":"rotation"}},{"sampler":3,"target":{"node":11,"path":"rotation"}},{"sampler":4,"target":{"node":12,"path":"rotation"}},{"sampler":5,"target":{"node":13,"path":"translation"}}]}],"nodes":[{"mesh":0,"skin":0,"translation":[-0.397515953,-0.701454461,-0.330423266],"scale":[5.61138622e-05,5.61138622e-05,5.61138622e-05]},{"mesh":1,"skin":1,"translation":[-0.397515953,-0.701454461,-0.330423266],"scale":[5.61138622e-05,5.61138622e-05,5.61138622e-05]},{"mesh":2,"skin":2,"translation":[-0.397515953,-0.701454461,-0.330423266],"scale":[5.61138622e-05,5.61138622e-05,5.61138622e-05]},{"mesh":3,"skin":3,"translation":[-0.397515953,-0.701454461,-0.330423266],"scale":[5.61138622e-05,5.61138622e-05,5.61138622e-05]},{"mesh":4,"skin":1,"translation":[-0.397515953,-0.701454461,-0.330423266],"scale":[5.61138622e-05,5.61138622e-05,5.61138622e-05]},{"name":"AlienHead","children":[0]},{"name":"Collar","children":[1]},{"name":"LeftEye","children":[2]},{"name":"RightEye","children":[3]},{"name":"ShirtPlate","children":[4]},{"name":"AlienMesh","children":[5,6,7,8,9]},{"name":"EyeLeft","translation":[-0.0712303519,0.0239446964,-0.116504133]},{"name":"EyeRight","translation":[0.0711476952,0.0239446964,-0.116504133],"rotation":[-7.82941206e-05,-1.30837989e-05,2.28614117e-05,1]},{"name":"EyesTarget","translation":[5.6269173e-06,0.0362397246,-0.280494243]},{"name":"Head","translation":[0,0.116296403,-0.111978047],"children":[11,12,13]},{"name":"SkullBase","translation":[0,0.193737999,-0.0845455825],"rotation":[-0.000467434613,-0.0489220321,0.000309797993,0.998802483],"children":[14]},{"name":"Neck","translation":[0,0.155999616,-0.0807582214],"rotation":[0,-0.00289896247,0,0.999995828],"children":[15]},{"name":"Root","translation":[0,-0.502544045,0.207669929],"children":[16]},{"name":"Alien","rotation":[0,1,0,0],"children":[10,17]}],"scenes":[{"nodes":[18]}],"scene":0}